<svg width="153" height="153" viewBox="0 0 153 153" fill="none" xmlns="http://www.w3.org/2000/svg">
<rect width="153" height="153" fill="url(#paint0_linear_114_23)"/>
<path d="M51.368 124.6H54.788C55.676 124.6 56.46 124.78 57.14 125.14C57.82 125.492 58.348 125.988 58.724 126.628C59.1 127.26 59.288 127.984 59.288 128.8C59.288 129.616 59.1 130.344 58.724 130.984C58.348 131.616 57.82 132.112 57.14 132.472C56.46 132.824 55.676 133 54.788 133H51.368V124.6ZM54.74 132.232C55.476 132.232 56.12 132.088 56.672 131.8C57.224 131.504 57.652 131.1 57.956 130.588C58.26 130.068 58.412 129.472 58.412 128.8C58.412 128.128 58.26 127.536 57.956 127.024C57.652 126.504 57.224 126.1 56.672 125.812C56.12 125.516 55.476 125.368 54.74 125.368H52.256V132.232H54.74ZM61.9181 127.924C62.1181 127.5 62.4141 127.18 62.8061 126.964C63.2061 126.748 63.6981 126.64 64.2821 126.64V127.468L64.0781 127.456C63.4141 127.456 62.8941 127.66 62.5181 128.068C62.1421 128.476 61.9541 129.048 61.9541 129.784V133H61.1021V126.688H61.9181V127.924ZM68.3461 133.06C67.7381 133.06 67.1901 132.924 66.7021 132.652C66.2141 132.372 65.8301 131.988 65.5501 131.5C65.2701 131.012 65.1301 130.46 65.1301 129.844C65.1301 129.228 65.2701 128.676 65.5501 128.188C65.8301 127.7 66.2141 127.32 66.7021 127.048C67.1901 126.776 67.7381 126.64 68.3461 126.64C68.9541 126.64 69.5021 126.776 69.9901 127.048C70.4781 127.32 70.8581 127.7 71.1301 128.188C71.4101 128.676 71.5501 129.228 71.5501 129.844C71.5501 130.46 71.4101 131.012 71.1301 131.5C70.8581 131.988 70.4781 132.372 69.9901 132.652C69.5021 132.924 68.9541 133.06 68.3461 133.06ZM68.3461 132.304C68.7941 132.304 69.1941 132.204 69.5461 132.004C69.9061 131.796 70.1861 131.504 70.3861 131.128C70.5861 130.752 70.6861 130.324 70.6861 129.844C70.6861 129.364 70.5861 128.936 70.3861 128.56C70.1861 128.184 69.9061 127.896 69.5461 127.696C69.1941 127.488 68.7941 127.384 68.3461 127.384C67.8981 127.384 67.4941 127.488 67.1341 127.696C66.7821 127.896 66.5021 128.184 66.2941 128.56C66.0941 128.936 65.9941 129.364 65.9941 129.844C65.9941 130.324 66.0941 130.752 66.2941 131.128C66.5021 131.504 66.7821 131.796 67.1341 132.004C67.4941 132.204 67.8981 132.304 68.3461 132.304ZM76.5416 126.64C77.1336 126.64 77.6696 126.776 78.1496 127.048C78.6296 127.312 79.0056 127.688 79.2776 128.176C79.5496 128.664 79.6856 129.22 79.6856 129.844C79.6856 130.476 79.5496 131.036 79.2776 131.524C79.0056 132.012 78.6296 132.392 78.1496 132.664C77.6776 132.928 77.1416 133.06 76.5416 133.06C76.0296 133.06 75.5656 132.956 75.1496 132.748C74.7416 132.532 74.4056 132.22 74.1416 131.812V135.328H73.2896V126.688H74.1056V127.936C74.3616 127.52 74.6976 127.2 75.1136 126.976C75.5376 126.752 76.0136 126.64 76.5416 126.64ZM76.4816 132.304C76.9216 132.304 77.3216 132.204 77.6816 132.004C78.0416 131.796 78.3216 131.504 78.5216 131.128C78.7296 130.752 78.8336 130.324 78.8336 129.844C78.8336 129.364 78.7296 128.94 78.5216 128.572C78.3216 128.196 78.0416 127.904 77.6816 127.696C77.3216 127.488 76.9216 127.384 76.4816 127.384C76.0336 127.384 75.6296 127.488 75.2696 127.696C74.9176 127.904 74.6376 128.196 74.4296 128.572C74.2296 128.94 74.1296 129.364 74.1296 129.844C74.1296 130.324 74.2296 130.752 74.4296 131.128C74.6376 131.504 74.9176 131.796 75.2696 132.004C75.6296 132.204 76.0336 132.304 76.4816 132.304ZM84.6744 126.64C85.2664 126.64 85.8024 126.776 86.2824 127.048C86.7624 127.312 87.1384 127.688 87.4104 128.176C87.6824 128.664 87.8184 129.22 87.8184 129.844C87.8184 130.468 87.6824 131.024 87.4104 131.512C87.1384 132 86.7624 132.38 86.2824 132.652C85.8024 132.924 85.2664 133.06 84.6744 133.06C84.1464 133.06 83.6704 132.948 83.2464 132.724C82.8304 132.5 82.4944 132.176 82.2384 131.752V133H81.4224V124.096H82.2744V127.888C82.5384 127.48 82.8744 127.172 83.2824 126.964C83.6984 126.748 84.1624 126.64 84.6744 126.64ZM84.6144 132.304C85.0544 132.304 85.4544 132.204 85.8144 132.004C86.1744 131.796 86.4544 131.504 86.6544 131.128C86.8624 130.752 86.9664 130.324 86.9664 129.844C86.9664 129.364 86.8624 128.936 86.6544 128.56C86.4544 128.184 86.1744 127.896 85.8144 127.696C85.4544 127.488 85.0544 127.384 84.6144 127.384C84.1664 127.384 83.7624 127.488 83.4024 127.696C83.0504 127.896 82.7704 128.184 82.5624 128.56C82.3624 128.936 82.2624 129.364 82.2624 129.844C82.2624 130.324 82.3624 130.752 82.5624 131.128C82.7704 131.504 83.0504 131.796 83.4024 132.004C83.7624 132.204 84.1664 132.304 84.6144 132.304ZM92.1352 133.06C91.5272 133.06 90.9792 132.924 90.4912 132.652C90.0032 132.372 89.6192 131.988 89.3392 131.5C89.0592 131.012 88.9192 130.46 88.9192 129.844C88.9192 129.228 89.0592 128.676 89.3392 128.188C89.6192 127.7 90.0032 127.32 90.4912 127.048C90.9792 126.776 91.5272 126.64 92.1352 126.64C92.7432 126.64 93.2912 126.776 93.7792 127.048C94.2672 127.32 94.6472 127.7 94.9192 128.188C95.1992 128.676 95.3392 129.228 95.3392 129.844C95.3392 130.46 95.1992 131.012 94.9192 131.5C94.6472 131.988 94.2672 132.372 93.7792 132.652C93.2912 132.924 92.7432 133.06 92.1352 133.06ZM92.1352 132.304C92.5832 132.304 92.9832 132.204 93.3352 132.004C93.6952 131.796 93.9752 131.504 94.1752 131.128C94.3752 130.752 94.4752 130.324 94.4752 129.844C94.4752 129.364 94.3752 128.936 94.1752 128.56C93.9752 128.184 93.6952 127.896 93.3352 127.696C92.9832 127.488 92.5832 127.384 92.1352 127.384C91.6872 127.384 91.2832 127.488 90.9232 127.696C90.5712 127.896 90.2912 128.184 90.0832 128.56C89.8832 128.936 89.7832 129.364 89.7832 129.844C89.7832 130.324 89.8832 130.752 90.0832 131.128C90.2912 131.504 90.5712 131.796 90.9232 132.004C91.2832 132.204 91.6872 132.304 92.1352 132.304ZM100.876 133L98.872 130.36L96.856 133H95.896L98.392 129.76L96.016 126.688H96.976L98.872 129.16L100.768 126.688H101.704L99.328 129.76L101.848 133H100.876Z" fill="#003045"/>
<path d="M62.8235 10V27.5C62.8235 31.6421 66.0234 35 69.9706 35H89.0294C92.9765 35 96.1765 31.6421 96.1765 27.5V10H98.9676C101.495 10 103.919 11.0535 105.706 12.9289L117.209 25C118.996 26.8754 120 29.4189 120 32.071V90C120 95.523 115.734 100 110.471 100H100.941V65C100.941 59.477 96.6749 55 91.4118 55H67.5882C62.3253 55 58.0588 59.477 58.0588 65V100H48.5294C43.2665 100 39 95.523 39 90L39 20C39 14.4771 43.2665 10 48.5294 10L62.8235 10ZM91.4118 65V100H67.5882V65H91.4118ZM86.6471 10V25H72.3529V10H86.6471Z" fill="#003045"/>
<defs>
<linearGradient id="paint0_linear_114_23" x1="76.5" y1="1.49012e-08" x2="77" y2="225" gradientUnits="userSpaceOnUse">
<stop stop-color="#5AB9A9"/>
<stop offset="1" stop-color="#003045" stop-opacity="0"/>
</linearGradient>
</defs>
</svg>
