<svg width="153" height="153" viewBox="0 0 153 153" fill="none" xmlns="http://www.w3.org/2000/svg">
<rect width="153" height="153" fill="url(#paint0_linear_114_23)"/>
<path d="M52.4559 109.6H55.8759C56.7639 109.6 57.5479 109.78 58.2279 110.14C58.9079 110.492 59.4359 110.988 59.8119 111.628C60.1879 112.26 60.3759 112.984 60.3759 113.8C60.3759 114.616 60.1879 115.344 59.8119 115.984C59.4359 116.616 58.9079 117.112 58.2279 117.472C57.5479 117.824 56.7639 118 55.8759 118H52.4559V109.6ZM55.8279 117.232C56.5639 117.232 57.2079 117.088 57.7599 116.8C58.3119 116.504 58.7399 116.1 59.0439 115.588C59.3479 115.068 59.4999 114.472 59.4999 113.8C59.4999 113.128 59.3479 112.536 59.0439 112.024C58.7399 111.504 58.3119 111.1 57.7599 110.812C57.2079 110.516 56.5639 110.368 55.8279 110.368H53.3439V117.232H55.8279ZM63.006 112.924C63.206 112.5 63.502 112.18 63.894 111.964C64.294 111.748 64.786 111.64 65.37 111.64V112.468L65.166 112.456C64.502 112.456 63.982 112.66 63.606 113.068C63.23 113.476 63.042 114.048 63.042 114.784V118H62.19V111.688H63.006V112.924ZM69.434 118.06C68.826 118.06 68.278 117.924 67.79 117.652C67.302 117.372 66.918 116.988 66.638 116.5C66.358 116.012 66.218 115.46 66.218 114.844C66.218 114.228 66.358 113.676 66.638 113.188C66.918 112.7 67.302 112.32 67.79 112.048C68.278 111.776 68.826 111.64 69.434 111.64C70.042 111.64 70.59 111.776 71.078 112.048C71.566 112.32 71.946 112.7 72.218 113.188C72.498 113.676 72.638 114.228 72.638 114.844C72.638 115.46 72.498 116.012 72.218 116.5C71.946 116.988 71.566 117.372 71.078 117.652C70.59 117.924 70.042 118.06 69.434 118.06ZM69.434 117.304C69.882 117.304 70.282 117.204 70.634 117.004C70.994 116.796 71.274 116.504 71.474 116.128C71.674 115.752 71.774 115.324 71.774 114.844C71.774 114.364 71.674 113.936 71.474 113.56C71.274 113.184 70.994 112.896 70.634 112.696C70.282 112.488 69.882 112.384 69.434 112.384C68.986 112.384 68.582 112.488 68.222 112.696C67.87 112.896 67.59 113.184 67.382 113.56C67.182 113.936 67.082 114.364 67.082 114.844C67.082 115.324 67.182 115.752 67.382 116.128C67.59 116.504 67.87 116.796 68.222 117.004C68.582 117.204 68.986 117.304 69.434 117.304ZM77.6295 111.64C78.2215 111.64 78.7575 111.776 79.2375 112.048C79.7175 112.312 80.0935 112.688 80.3655 113.176C80.6375 113.664 80.7735 114.22 80.7735 114.844C80.7735 115.476 80.6375 116.036 80.3655 116.524C80.0935 117.012 79.7175 117.392 79.2375 117.664C78.7655 117.928 78.2295 118.06 77.6295 118.06C77.1175 118.06 76.6535 117.956 76.2375 117.748C75.8295 117.532 75.4935 117.22 75.2295 116.812V120.328H74.3775V111.688H75.1935V112.936C75.4495 112.52 75.7855 112.2 76.2015 111.976C76.6255 111.752 77.1015 111.64 77.6295 111.64ZM77.5695 117.304C78.0095 117.304 78.4095 117.204 78.7695 117.004C79.1295 116.796 79.4095 116.504 79.6095 116.128C79.8175 115.752 79.9215 115.324 79.9215 114.844C79.9215 114.364 79.8175 113.94 79.6095 113.572C79.4095 113.196 79.1295 112.904 78.7695 112.696C78.4095 112.488 78.0095 112.384 77.5695 112.384C77.1215 112.384 76.7175 112.488 76.3575 112.696C76.0055 112.904 75.7255 113.196 75.5175 113.572C75.3175 113.94 75.2175 114.364 75.2175 114.844C75.2175 115.324 75.3175 115.752 75.5175 116.128C75.7255 116.504 76.0055 116.796 76.3575 117.004C76.7175 117.204 77.1215 117.304 77.5695 117.304ZM85.7623 111.64C86.3543 111.64 86.8903 111.776 87.3703 112.048C87.8503 112.312 88.2263 112.688 88.4983 113.176C88.7703 113.664 88.9063 114.22 88.9063 114.844C88.9063 115.468 88.7703 116.024 88.4983 116.512C88.2263 117 87.8503 117.38 87.3703 117.652C86.8903 117.924 86.3543 118.06 85.7623 118.06C85.2343 118.06 84.7583 117.948 84.3343 117.724C83.9183 117.5 83.5823 117.176 83.3263 116.752V118H82.5103V109.096H83.3623V112.888C83.6263 112.48 83.9623 112.172 84.3703 111.964C84.7863 111.748 85.2503 111.64 85.7623 111.64ZM85.7023 117.304C86.1423 117.304 86.5423 117.204 86.9023 117.004C87.2623 116.796 87.5423 116.504 87.7423 116.128C87.9503 115.752 88.0543 115.324 88.0543 114.844C88.0543 114.364 87.9503 113.936 87.7423 113.56C87.5423 113.184 87.2623 112.896 86.9023 112.696C86.5423 112.488 86.1423 112.384 85.7023 112.384C85.2543 112.384 84.8503 112.488 84.4903 112.696C84.1383 112.896 83.8583 113.184 83.6503 113.56C83.4503 113.936 83.3503 114.364 83.3503 114.844C83.3503 115.324 83.4503 115.752 83.6503 116.128C83.8583 116.504 84.1383 116.796 84.4903 117.004C84.8503 117.204 85.2543 117.304 85.7023 117.304ZM93.2231 118.06C92.6151 118.06 92.0671 117.924 91.5791 117.652C91.0911 117.372 90.7071 116.988 90.4271 116.5C90.1471 116.012 90.0071 115.46 90.0071 114.844C90.0071 114.228 90.1471 113.676 90.4271 113.188C90.7071 112.7 91.0911 112.32 91.5791 112.048C92.0671 111.776 92.6151 111.64 93.2231 111.64C93.8311 111.64 94.3791 111.776 94.8671 112.048C95.3551 112.32 95.7351 112.7 96.0071 113.188C96.2871 113.676 96.4271 114.228 96.4271 114.844C96.4271 115.46 96.2871 116.012 96.0071 116.5C95.7351 116.988 95.3551 117.372 94.8671 117.652C94.3791 117.924 93.8311 118.06 93.2231 118.06ZM93.2231 117.304C93.6711 117.304 94.0711 117.204 94.4231 117.004C94.7831 116.796 95.0631 116.504 95.2631 116.128C95.4631 115.752 95.5631 115.324 95.5631 114.844C95.5631 114.364 95.4631 113.936 95.2631 113.56C95.0631 113.184 94.7831 112.896 94.4231 112.696C94.0711 112.488 93.6711 112.384 93.2231 112.384C92.7751 112.384 92.3711 112.488 92.0111 112.696C91.6591 112.896 91.3791 113.184 91.1711 113.56C90.9711 113.936 90.8711 114.364 90.8711 114.844C90.8711 115.324 90.9711 115.752 91.1711 116.128C91.3791 116.504 91.6591 116.796 92.0111 117.004C92.3711 117.204 92.7751 117.304 93.2231 117.304ZM101.964 118L99.9599 115.36L97.9439 118H96.9839L99.4799 114.76L97.1039 111.688H98.0639L99.9599 114.16L101.856 111.688H102.792L100.416 114.76L102.936 118H101.964Z" fill="#003045"/>
<path d="M41.44 132.713C42.032 132.713 42.568 132.849 43.048 133.121C43.528 133.385 43.904 133.761 44.176 134.249C44.448 134.737 44.584 135.293 44.584 135.917C44.584 136.541 44.448 137.097 44.176 137.585C43.904 138.073 43.528 138.453 43.048 138.725C42.568 138.997 42.032 139.133 41.44 139.133C40.912 139.133 40.436 139.021 40.012 138.797C39.596 138.573 39.26 138.249 39.004 137.825V139.073H38.188V130.169H39.04V133.961C39.304 133.553 39.64 133.245 40.048 133.037C40.464 132.821 40.928 132.713 41.44 132.713ZM41.38 138.377C41.82 138.377 42.22 138.277 42.58 138.077C42.94 137.869 43.22 137.577 43.42 137.201C43.628 136.825 43.732 136.397 43.732 135.917C43.732 135.437 43.628 135.009 43.42 134.633C43.22 134.257 42.94 133.969 42.58 133.769C42.22 133.561 41.82 133.457 41.38 133.457C40.932 133.457 40.528 133.561 40.168 133.769C39.816 133.969 39.536 134.257 39.328 134.633C39.128 135.009 39.028 135.437 39.028 135.917C39.028 136.397 39.128 136.825 39.328 137.201C39.536 137.577 39.816 137.869 40.168 138.077C40.528 138.277 40.932 138.377 41.38 138.377ZM52.0088 132.761V138.305C52.0088 139.377 51.7648 140.169 51.2768 140.681C50.7888 141.201 50.0528 141.461 49.0688 141.461C48.5168 141.461 47.9928 141.373 47.4968 141.197C47.0088 141.029 46.6128 140.793 46.3088 140.489L46.7408 139.841C47.0128 140.113 47.3488 140.325 47.7488 140.477C48.1488 140.629 48.5768 140.705 49.0328 140.705C49.7608 140.705 50.2968 140.517 50.6408 140.141C50.9848 139.773 51.1568 139.197 51.1568 138.413V137.681C50.9328 138.049 50.6248 138.333 50.2328 138.533C49.8488 138.733 49.4128 138.833 48.9248 138.833C48.1008 138.833 47.4488 138.605 46.9688 138.149C46.4968 137.685 46.2608 137.009 46.2608 136.121V132.761H47.1128V136.037C47.1128 136.701 47.2768 137.205 47.6048 137.549C47.9328 137.893 48.4008 138.065 49.0088 138.065C49.6728 138.065 50.1968 137.865 50.5808 137.465C50.9648 137.057 51.1568 136.493 51.1568 135.773V132.761H52.0088ZM60.1157 139.133C59.5077 139.133 58.9597 138.997 58.4717 138.725C57.9837 138.445 57.5997 138.061 57.3197 137.573C57.0397 137.085 56.8997 136.533 56.8997 135.917C56.8997 135.301 57.0397 134.749 57.3197 134.261C57.5997 133.773 57.9837 133.393 58.4717 133.121C58.9597 132.849 59.5077 132.713 60.1157 132.713C60.7237 132.713 61.2717 132.849 61.7597 133.121C62.2477 133.393 62.6277 133.773 62.8997 134.261C63.1797 134.749 63.3197 135.301 63.3197 135.917C63.3197 136.533 63.1797 137.085 62.8997 137.573C62.6277 138.061 62.2477 138.445 61.7597 138.725C61.2717 138.997 60.7237 139.133 60.1157 139.133ZM60.1157 138.377C60.5637 138.377 60.9637 138.277 61.3157 138.077C61.6757 137.869 61.9557 137.577 62.1557 137.201C62.3557 136.825 62.4557 136.397 62.4557 135.917C62.4557 135.437 62.3557 135.009 62.1557 134.633C61.9557 134.257 61.6757 133.969 61.3157 133.769C60.9637 133.561 60.5637 133.457 60.1157 133.457C59.6677 133.457 59.2637 133.561 58.9037 133.769C58.5517 133.969 58.2717 134.257 58.0637 134.633C57.8637 135.009 57.7637 135.437 57.7637 135.917C57.7637 136.397 57.8637 136.825 58.0637 137.201C58.2717 137.577 58.5517 137.869 58.9037 138.077C59.2637 138.277 59.6677 138.377 60.1157 138.377ZM70.8191 130.169V139.073H70.0031V137.825C69.7471 138.249 69.4071 138.573 68.9831 138.797C68.5671 139.021 68.0951 139.133 67.5671 139.133C66.9751 139.133 66.4391 138.997 65.9591 138.725C65.4791 138.453 65.1031 138.073 64.8311 137.585C64.5591 137.097 64.4231 136.541 64.4231 135.917C64.4231 135.293 64.5591 134.737 64.8311 134.249C65.1031 133.761 65.4791 133.385 65.9591 133.121C66.4391 132.849 66.9751 132.713 67.5671 132.713C68.0791 132.713 68.5391 132.821 68.9471 133.037C69.3631 133.245 69.7031 133.553 69.9671 133.961V130.169H70.8191ZM67.6391 138.377C68.0791 138.377 68.4751 138.277 68.8271 138.077C69.1871 137.869 69.4671 137.577 69.6671 137.201C69.8751 136.825 69.9791 136.397 69.9791 135.917C69.9791 135.437 69.8751 135.009 69.6671 134.633C69.4671 134.257 69.1871 133.969 68.8271 133.769C68.4751 133.561 68.0791 133.457 67.6391 133.457C67.1911 133.457 66.7871 133.561 66.4271 133.769C66.0751 133.969 65.7951 134.257 65.5871 134.633C65.3871 135.009 65.2871 135.437 65.2871 135.917C65.2871 136.397 65.3871 136.825 65.5871 137.201C65.7951 137.577 66.0751 137.869 66.4271 138.077C66.7871 138.277 67.1911 138.377 67.6391 138.377ZM73.1919 132.761H74.0439V139.073H73.1919V132.761ZM73.6239 131.381C73.4479 131.381 73.2999 131.321 73.1799 131.201C73.0599 131.081 72.9999 130.937 72.9999 130.769C72.9999 130.609 73.0599 130.469 73.1799 130.349C73.2999 130.229 73.4479 130.169 73.6239 130.169C73.7999 130.169 73.9479 130.229 74.0679 130.349C74.1879 130.461 74.2479 130.597 74.2479 130.757C74.2479 130.933 74.1879 131.081 74.0679 131.201C73.9479 131.321 73.7999 131.381 73.6239 131.381ZM79.6306 132.713C80.4226 132.713 81.0506 132.945 81.5146 133.409C81.9866 133.865 82.2226 134.533 82.2226 135.413V139.073H81.3706V135.497C81.3706 134.841 81.2066 134.341 80.8786 133.997C80.5506 133.653 80.0826 133.481 79.4746 133.481C78.7946 133.481 78.2546 133.685 77.8546 134.093C77.4626 134.493 77.2666 135.049 77.2666 135.761V139.073H76.4146V132.761H77.2306V133.925C77.4626 133.541 77.7826 133.245 78.1906 133.037C78.6066 132.821 79.0866 132.713 79.6306 132.713ZM90.3191 132.761V139.073H89.5031V137.825C89.2471 138.249 88.9071 138.573 88.4831 138.797C88.0671 139.021 87.5951 139.133 87.0671 139.133C86.4751 139.133 85.9391 138.997 85.4591 138.725C84.9791 138.453 84.6031 138.073 84.3311 137.585C84.0591 137.097 83.9231 136.541 83.9231 135.917C83.9231 135.293 84.0591 134.737 84.3311 134.249C84.6031 133.761 84.9791 133.385 85.4591 133.121C85.9391 132.849 86.4751 132.713 87.0671 132.713C87.5791 132.713 88.0391 132.821 88.4471 133.037C88.8631 133.245 89.2031 133.553 89.4671 133.961V132.761H90.3191ZM87.1391 138.377C87.5791 138.377 87.9751 138.277 88.3271 138.077C88.6871 137.869 88.9671 137.577 89.1671 137.201C89.3751 136.825 89.4791 136.397 89.4791 135.917C89.4791 135.437 89.3751 135.009 89.1671 134.633C88.9671 134.257 88.6871 133.969 88.3271 133.769C87.9751 133.561 87.5791 133.457 87.1391 133.457C86.6911 133.457 86.2871 133.561 85.9271 133.769C85.5751 133.969 85.2951 134.257 85.0871 134.633C84.8871 135.009 84.7871 135.437 84.7871 135.917C84.7871 136.397 84.8871 136.825 85.0871 137.201C85.2951 137.577 85.5751 137.869 85.9271 138.077C86.2871 138.277 86.6911 138.377 87.1391 138.377ZM98.3799 132.761V138.305C98.3799 139.377 98.1359 140.169 97.6479 140.681C97.1599 141.201 96.4239 141.461 95.4399 141.461C94.8879 141.461 94.3639 141.373 93.8679 141.197C93.3799 141.029 92.9839 140.793 92.6799 140.489L93.1119 139.841C93.3839 140.113 93.7199 140.325 94.1199 140.477C94.5199 140.629 94.9479 140.705 95.4039 140.705C96.1319 140.705 96.6679 140.517 97.0119 140.141C97.3559 139.773 97.5279 139.197 97.5279 138.413V137.681C97.3039 138.049 96.9959 138.333 96.6039 138.533C96.2199 138.733 95.7839 138.833 95.2959 138.833C94.4719 138.833 93.8199 138.605 93.3399 138.149C92.8679 137.685 92.6319 137.009 92.6319 136.121V132.761H93.4839V136.037C93.4839 136.701 93.6479 137.205 93.9759 137.549C94.3039 137.893 94.7719 138.065 95.3799 138.065C96.0439 138.065 96.5679 137.865 96.9519 137.465C97.3359 137.057 97.5279 136.493 97.5279 135.773V132.761H98.3799ZM103.466 138.377C103.858 138.377 104.218 138.309 104.546 138.173C104.882 138.029 105.166 137.821 105.398 137.549L105.878 138.101C105.598 138.437 105.25 138.693 104.834 138.869C104.418 139.045 103.958 139.133 103.454 139.133C102.806 139.133 102.23 138.997 101.726 138.725C101.222 138.445 100.83 138.061 100.55 137.573C100.27 137.085 100.13 136.533 100.13 135.917C100.13 135.301 100.262 134.749 100.526 134.261C100.798 133.773 101.17 133.393 101.642 133.121C102.114 132.849 102.65 132.713 103.25 132.713C103.81 132.713 104.314 132.841 104.762 133.097C105.218 133.353 105.578 133.709 105.842 134.165C106.114 134.621 106.258 135.141 106.274 135.725L101.09 136.733C101.25 137.245 101.538 137.649 101.954 137.945C102.378 138.233 102.882 138.377 103.466 138.377ZM103.25 133.445C102.81 133.445 102.414 133.549 102.062 133.757C101.718 133.957 101.446 134.241 101.246 134.609C101.054 134.969 100.958 135.385 100.958 135.857C100.958 135.977 100.962 136.065 100.97 136.121L105.422 135.257C105.326 134.729 105.082 134.297 104.69 133.961C104.298 133.617 103.818 133.445 103.25 133.445ZM113.195 132.761L110.387 139.073H109.511L106.715 132.761H107.603L109.967 138.137L112.355 132.761H113.195ZM113.066 139.073H119.066V139.649H113.066V139.073ZM122.198 130.829C121.83 130.829 121.55 130.929 121.358 131.129C121.174 131.329 121.082 131.625 121.082 132.017V132.761H123.026V133.481H121.106V139.073H120.254V131.981C120.254 131.405 120.418 130.949 120.746 130.613C121.082 130.277 121.554 130.109 122.162 130.109C122.402 130.109 122.634 130.145 122.858 130.217C123.082 130.281 123.27 130.377 123.422 130.505L123.134 131.141C122.886 130.933 122.574 130.829 122.198 130.829Z" fill="#003045"/>
<path d="M62.8235 10V27.5C62.8235 31.6421 66.0234 35 69.9706 35H89.0294C92.9765 35 96.1765 31.6421 96.1765 27.5V10H98.9676C101.495 10 103.919 11.0535 105.706 12.9289L117.209 25C118.996 26.8754 120 29.4189 120 32.071V90C120 95.523 115.734 100 110.471 100H100.941V65C100.941 59.477 96.6749 55 91.4118 55H67.5882C62.3253 55 58.0588 59.477 58.0588 65V100H48.5294C43.2665 100 39 95.523 39 90L39 20C39 14.4771 43.2665 10 48.5294 10L62.8235 10ZM91.4118 65V100H67.5882V65H91.4118ZM86.6471 10V25H72.3529V10H86.6471Z" fill="#003045"/>
<defs>
<linearGradient id="paint0_linear_114_23" x1="76.5" y1="1.49012e-08" x2="77" y2="225" gradientUnits="userSpaceOnUse">
<stop stop-color="#5AB9A9"/>
<stop offset="1" stop-color="#003045" stop-opacity="0"/>
</linearGradient>
</defs>
</svg>
